<svg xmlns="http://www.w3.org/2000/svg" width="900" height="460" viewBox="0 0 900 460"><rect width="900" height="460" fill="#ffffff"/><path d="M70.0,420.0 L103.6,409.7 L137.2,399.0 L170.8,388.1 L204.3,376.8 L237.9,365.1 L271.5,353.1 L305.1,340.7 L338.7,328.0 L372.3,314.8 L405.8,301.2 L439.4,287.2 L473.0,272.7 L506.6,257.7 L540.2,242.3 L573.8,226.3 L607.3,209.8 L640.9,192.8 L674.5,175.2 L708.1,156.9 L741.7,138.1 L775.3,118.6 L808.8,98.5 L842.4,77.6 L876.0,56.0 " fill="none" stroke="#3b82f6" stroke-width="2.6" stroke-dasharray="0"/><path d="M70.0,420.0 L103.6,412.0 L137.2,403.8 L170.8,395.6 L204.3,387.3 L237.9,378.8 L271.5,370.2 L305.1,361.6 L338.7,352.8 L372.3,343.9 L405.8,334.9 L439.4,325.7 L473.0,316.5 L506.6,307.1 L540.2,297.6 L573.8,288.0 L607.3,278.2 L640.9,268.4 L674.5,258.4 L708.1,248.2 L741.7,238.0 L775.3,227.6 L808.8,217.1 L842.4,206.4 L876.0,195.6 " fill="none" stroke="#10b981" stroke-width="1.6" stroke-dasharray="5 4"/><path d="M70.0,420.0 L103.6,408.3 L137.2,396.3 L170.8,384.1 L204.3,371.7 L237.9,359.1 L271.5,346.2 L305.1,333.0 L338.7,319.7 L372.3,306.0 L405.8,292.1 L439.4,278.0 L473.0,263.5 L506.6,248.8 L540.2,233.8 L573.8,218.6 L607.3,203.0 L640.9,187.1 L674.5,171.0 L708.1,154.5 L741.7,137.7 L775.3,120.6 L808.8,103.2 L842.4,85.5 L876.0,67.4 " fill="none" stroke="#f97316" stroke-width="1.6" stroke-dasharray="5 4"/><path d="M70.0,420.0 L103.6,412.6 L137.2,405.1 L170.8,397.5 L204.3,389.8 L237.9,382.0 L271.5,374.2 L305.1,366.2 L338.7,358.2 L372.3,350.0 L405.8,341.8 L439.4,333.4 L473.0,325.0 L506.6,316.4 L540.2,307.8 L573.8,299.0 L607.3,290.1 L640.9,281.2 L674.5,272.1 L708.1,262.9 L741.7,253.6 L775.3,244.2 L808.8,234.7 L842.4,225.1 L876.0,215.3 " fill="none" stroke="#a855f7" stroke-width="1.6" stroke-dasharray="5 4"/><circle cx="876.0" cy="56.0" r="5" fill="#3b82f6"/><text x="870.0" y="44.0" font-size="13" fill="#1d4ed8" text-anchor="end" font-weight="700">그래프 말단 = 6.00억 (₩600,000,000)</text><text x="70" y="24" font-size="16" font-weight="800" fill="#0f172a">전체 계좌 · 2년 역산 성과 분석 (검증용 합성 시세)</text><text x="70" y="44" font-size="12.5" fill="#475569">카드 현재가치 ₩600,000,000 · 원금 ₩377,488,867 · 수익률 +58.9% · (그래프 말단과 100% 일치)</text><rect x="516" y="440" width="14" height="4" fill="#3b82f6"/><text x="534" y="444" font-size="11" fill="#475569">내 포트폴리오</text><rect x="608" y="440" width="14" height="4" fill="#10b981"/><text x="626" y="444" font-size="11" fill="#475569">SPY 투자 시</text><rect x="700" y="440" width="14" height="4" fill="#f97316"/><text x="718" y="444" font-size="11" fill="#475569">QQQ 투자 시</text><rect x="792" y="440" width="14" height="4" fill="#a855f7"/><text x="810" y="444" font-size="11" fill="#475569">SCHD 투자 시</text><line x1="70" y1="420.0" x2="876" y2="420.0" stroke="#e2e8f0" stroke-width="1"/><text x="62" y="424.0" font-size="10.5" fill="#94a3b8" text-anchor="end">3.77억</text><line x1="70" y1="329.0" x2="876" y2="329.0" stroke="#e2e8f0" stroke-width="1"/><text x="62" y="333.0" font-size="10.5" fill="#94a3b8" text-anchor="end">4.33억</text><line x1="70" y1="238.0" x2="876" y2="238.0" stroke="#e2e8f0" stroke-width="1"/><text x="62" y="242.0" font-size="10.5" fill="#94a3b8" text-anchor="end">4.89억</text><line x1="70" y1="147.0" x2="876" y2="147.0" stroke="#e2e8f0" stroke-width="1"/><text x="62" y="151.0" font-size="10.5" fill="#94a3b8" text-anchor="end">5.44억</text><line x1="70" y1="56.0" x2="876" y2="56.0" stroke="#e2e8f0" stroke-width="1"/><text x="62" y="60.0" font-size="10.5" fill="#94a3b8" text-anchor="end">6.00억</text></svg>